<?xml version="1.0" encoding="UTF-8" standalone="no"?>
<!DOCTYPE svg PUBLIC "-//W3C//DTD SVG 1.1//EN" "http://www.w3.org/Graphics/SVG/1.1/DTD/svg11.dtd">
<svg xmlns="http://www.w3.org/2000/svg" version="1.1" viewBox="0.00 0.00 110.00 110.00">
<g stroke-width="2.00" fill="none" stroke-linecap="butt">
<path stroke="#bab7b4" vector-effect="non-scaling-stroke" d="
  M 32.75 88.79
  C 32.58 94.17 32.70 98.41 39.14 98.60
  Q 60.20 99.22 72.50 98.56
  C 77.34 98.31 77.56 92.15 77.39 88.71"
/>
<path stroke="#d8e5e0" vector-effect="non-scaling-stroke" d="
  M 77.39 88.71
  Q 77.96 83.17 77.99 77.50
  Q 78.16 47.24 77.82 17.01
  C 77.76 11.82 73.82 10.01 68.98 9.99
  Q 54.27 9.93 39.57 10.28
  C 32.67 10.44 32.38 15.34 32.30 20.75
  Q 31.84 49.09 32.08 77.44
  Q 32.13 83.14 32.75 88.79"
/>
<path stroke="#939c95" vector-effect="non-scaling-stroke" d="
  M 77.39 88.71
  Q 76.33 91.00 76.84 93.51
  Q 76.95 94.04 76.74 94.54
  Q 75.12 98.33 70.88 98.19
  C 61.72 97.89 52.44 98.36 43.25 98.17
  C 37.73 98.05 32.91 98.75 33.22 92.06
  Q 33.32 89.87 32.75 88.79"
/>
<path stroke="#bab7b4" vector-effect="non-scaling-stroke" d="
  M 29.9765 43.4405
  A 0.70 0.53 -5.7 0 0 29.2274 42.9826
  A 0.70 0.53 -5.7 0 0 28.5835 43.5795
  A 0.70 0.53 -5.7 0 0 29.3326 44.0374
  A 0.70 0.53 -5.7 0 0 29.9765 43.4405"
/>
<path stroke="#5a6762" vector-effect="non-scaling-stroke" d="
  M 38.79 28.25
  Q 40.75 28.93 42.21 27.50"
/>
<path stroke="#bdd4ca" vector-effect="non-scaling-stroke" d="
  M 42.21 27.50
  L 42.80 29.14
  Q 42.96 29.58 43.43 29.64
  C 45.33 29.88 48.76 40.19 49.50 42.21"
/>
<path stroke="#ccd4cb" vector-effect="non-scaling-stroke" d="
  M 49.50 42.21
  Q 45.68 43.49 41.63 43.64
  Q 41.07 43.67 40.65 44.02
  Q 39.33 45.12 37.64 45.06
  Q 37.09 45.04 37.08 45.60
  L 37.04 48.00"
/>
<path stroke="#d8e5e0" vector-effect="non-scaling-stroke" d="
  M 37.04 48.00
  Q 36.59 66.20 37.86 84.35
  Q 37.90 84.93 38.47 84.91
  L 44.00 84.71"
/>
<path stroke="#939c95" vector-effect="non-scaling-stroke" d="
  M 44.00 84.71
  L 44.96 84.50"
/>
<path stroke="#d0dcd7" vector-effect="non-scaling-stroke" d="
  M 44.96 84.50
  C 45.30 85.08 51.90 84.66 53.50 85.04"
/>
<path stroke="#939c95" vector-effect="non-scaling-stroke" d="
  M 53.50 85.04
  L 52.09 88.94
  Q 51.72 89.95 52.58 89.31
  Q 55.82 86.92 57.57 84.15"
/>
<path stroke="#d0dcd7" vector-effect="non-scaling-stroke" d="
  M 57.57 84.15
  Q 64.42 85.07 71.19 84.57
  Q 71.56 84.55 71.59 84.17
  L 73.04 59.75"
/>
<path stroke="#bdd4ca" vector-effect="non-scaling-stroke" d="
  M 73.04 59.75
  L 73.57 58.81
  Q 73.88 58.26 74.33 58.70
  L 74.62 59.00
  Q 74.95 59.32 74.93 59.78
  Q 74.65 67.63 75.04 75.49
  Q 75.08 76.40 75.18 75.49
  C 75.41 73.38 76.19 71.64 76.11 69.55
  C 75.68 58.53 76.29 49.20 76.09 40.67
  C 75.89 32.04 77.40 23.76 75.98 15.16
  C 75.65 13.18 74.20 11.37 72.25 11.27
  Q 65.83 10.95 51.49 11.59
  Q 50.96 11.61 50.48 11.39
  Q 49.57 10.95 48.75 11.20
  Q 47.68 11.53 48.77 11.80
  Q 49.97 12.10 50.60 13.13
  Q 50.98 13.75 50.32 13.44
  Q 41.42 9.24 34.60 15.70
  Q 34.23 16.05 34.15 16.56
  Q 33.22 22.13 34.27 27.69
  Q 34.35 28.14 34.77 28.33
  L 37.32 29.48
  Q 37.81 29.70 38.22 29.36
  Q 38.70 28.99 38.79 28.25"
/>
<path stroke="#dbe5e1" vector-effect="non-scaling-stroke" d="
  M 73.04 59.75
  Q 72.86 54.75 73.16 49.82
  C 73.64 41.72 64.52 44.34 59.75 43.71"
/>
<path stroke="#d8ded5" vector-effect="non-scaling-stroke" d="
  M 59.75 43.71
  Q 59.55 42.77 58.97 42.11
  Q 58.63 41.71 58.10 41.74
  L 49.50 42.21"
/>
<path stroke="#66706c" vector-effect="non-scaling-stroke" d="
  M 42.21 27.50
  Q 43.69 26.17 42.93 24.60
  C 40.41 19.37 33.73 25.23 38.79 28.25"
/>
<path stroke="#ebe6e1" vector-effect="non-scaling-stroke" d="
  M 59.75 43.71
  Q 59.64 46.34 63.25 45.79"
/>
<path stroke="#f3efea" vector-effect="non-scaling-stroke" d="
  M 63.25 45.79
  L 62.29 47.75"
/>
<path stroke="#aea69f" vector-effect="non-scaling-stroke" d="
  M 62.29 47.75
  L 62.29 48.75"
/>
<path stroke="#f3efea" vector-effect="non-scaling-stroke" d="
  M 62.29 48.75
  Q 57.07 49.90 51.75 49.46"
/>
<path stroke="#aea69f" vector-effect="non-scaling-stroke" d="
  M 51.75 49.46
  L 51.98 47.23
  Q 52.05 46.56 51.38 46.61
  Q 49.21 46.76 48.86 48.72
  Q 48.72 49.49 48.16 48.94
  Q 47.74 48.54 47.75 47.98
  Q 47.76 46.78 47.26 47.87
  Q 46.87 48.74 47.50 49.46"
/>
<path stroke="#f3efea" vector-effect="non-scaling-stroke" d="
  M 47.50 49.46
  C 45.38 49.46 40.81 50.02 42.07 52.95"
/>
<path stroke="#75716c" vector-effect="non-scaling-stroke" d="
  M 42.07 52.95
  Q 39.79 52.95 39.21 54.75"
/>
<path stroke="#f3efea" vector-effect="non-scaling-stroke" d="
  M 39.21 54.75
  Q 38.61 53.67 38.79 52.50"
/>
<path stroke="#aea69f" vector-effect="non-scaling-stroke" d="
  M 38.79 52.50
  Q 39.69 52.42 40.03 51.79
  Q 40.34 51.25 39.74 51.08
  L 38.75 50.79"
/>
<path stroke="#f3efea" vector-effect="non-scaling-stroke" d="
  M 38.75 50.79
  Q 37.65 49.56 38.07 48.03
  Q 38.22 47.51 37.72 47.72
  L 37.04 48.00"
/>
<path stroke="#b2aeab" vector-effect="non-scaling-stroke" d="
  M 57.57 84.15
  Q 58.45 83.10 58.56 82.43
  Q 58.65 81.85 58.24 82.28
  C 56.61 83.99 55.23 87.26 52.84 88.31
  Q 51.87 88.73 52.47 87.87
  L 54.69 84.70
  Q 54.73 84.64 54.70 84.58
  Q 54.63 84.47 54.49 84.40
  Q 54.10 84.21 53.84 84.56
  L 53.50 85.04"
/>
<path stroke="#b2aeab" vector-effect="non-scaling-stroke" d="
  M 44.96 84.50
  C 47.13 82.40 54.24 83.43 53.95 80.65
  Q 53.88 79.93 53.29 80.34
  Q 52.28 81.03 51.10 80.65
  Q 50.67 80.51 50.31 80.78
  L 47.22 83.16
  A 0.60 0.59 -1.9 0 1 46.36 82.36
  Q 48.24 79.55 49.00 76.25"
/>
<path stroke="#b2aeab" vector-effect="non-scaling-stroke" d="
  M 49.00 76.25
  C 49.87 75.21 61.87 75.45 64.25 75.29"
/>
<path stroke="#dacfca" vector-effect="non-scaling-stroke" d="
  M 64.25 75.29
  L 68.71 75.64
  Q 69.51 75.70 69.26 74.93
  L 69.04 74.21
  Q 68.87 73.69 68.86 73.14
  L 68.71 67.75"
/>
<path stroke="#b2aeab" vector-effect="non-scaling-stroke" d="
  M 68.71 67.75
  L 68.73 66.62
  Q 68.73 66.24 68.35 66.25
  C 67.60 66.26 67.63 67.75 66.43 67.74
  Q 65.87 67.74 65.79 67.18
  Q 65.20 62.68 66.04 58.25"
/>
<path stroke="#dacfca" vector-effect="non-scaling-stroke" d="
  M 66.04 58.25
  L 66.54 58.00"
/>
<path stroke="#b2aeab" vector-effect="non-scaling-stroke" d="
  M 66.54 58.00
  Q 67.44 58.22 67.75 59.03
  Q 67.94 59.52 67.74 60.00
  Q 67.15 61.38 67.76 62.68
  Q 68.14 63.51 68.39 62.63
  Q 69.25 59.65 67.96 57.00"
/>
<path stroke="#dacfca" vector-effect="non-scaling-stroke" d="
  M 67.96 57.00
  Q 69.10 51.75 68.78 46.40
  Q 68.74 45.76 68.14 45.55
  L 67.08 45.18
  Q 66.51 44.99 66.86 45.47
  Q 68.16 47.29 68.05 49.30
  Q 67.91 51.82 66.29 54.42"
/>
<path stroke="#b2aeab" vector-effect="non-scaling-stroke" d="
  M 66.29 54.42
  Q 65.46 52.02 65.71 50.00"
/>
<path stroke="#f7f6f6" vector-effect="non-scaling-stroke" d="
  M 65.71 50.00
  Q 66.70 48.05 65.80 46.04
  Q 65.59 45.57 65.08 45.51
  Q 64.17 45.40 63.25 45.79"
/>
<path stroke="#bab7b4" vector-effect="non-scaling-stroke" d="
  M 65.71 50.00
  Q 65.35 49.91 65.03 50.01
  Q 64.49 50.18 64.51 50.74
  L 65.35 70.76
  Q 65.38 71.46 64.69 71.46
  C 61.94 71.47 43.09 71.60 42.34 73.37
  Q 42.08 73.98 42.68 73.70
  Q 44.59 72.80 47.24 72.98
  Q 51.10 73.24 60.50 72.54"
/>
<path stroke="#e3d8d3" vector-effect="non-scaling-stroke" d="
  M 60.50 72.54
  Q 61.43 73.92 63.08 74.60"
/>
<path stroke="#bab7b4" vector-effect="non-scaling-stroke" d="
  M 63.08 74.60
  Q 54.64 74.97 46.35 74.67
  C 45.02 74.62 44.05 73.77 43.17 75.53
  A 0.20 0.20 0.0 0 0 43.44 75.79
  C 44.38 75.33 49.01 74.18 49.00 76.25"
/>
<path stroke="#bab7b4" vector-effect="non-scaling-stroke" d="
  M 49.00 76.25
  Q 47.27 80.96 44.00 84.71"
/>
<path stroke="#bab7b4" vector-effect="non-scaling-stroke" d="
  M 38.75 50.79
  L 38.79 52.50"
/>
<path stroke="#818181" vector-effect="non-scaling-stroke" d="
  M 39.21 54.75
  L 39.29 57.50"
/>
<path stroke="#e3d8d3" vector-effect="non-scaling-stroke" d="
  M 39.29 57.50
  L 39.54 58.75"
/>
<path stroke="#818181" vector-effect="non-scaling-stroke" d="
  M 39.54 58.75
  L 39.25 59.96"
/>
<path stroke="#f3efea" vector-effect="non-scaling-stroke" d="
  M 39.25 59.96
  Q 38.50 61.68 39.04 63.50"
/>
<path stroke="#bab7b4" vector-effect="non-scaling-stroke" d="
  M 39.04 63.50
  L 39.04 65.75"
/>
<path stroke="#f3efea" vector-effect="non-scaling-stroke" d="
  M 39.04 65.75
  Q 38.27 67.43 39.75 68.29"
/>
<path stroke="#e3d8d3" vector-effect="non-scaling-stroke" d="
  M 39.75 68.29
  Q 38.56 69.78 39.31 71.21
  Q 39.60 71.76 40.22 71.76
  L 42.22 71.73
  Q 42.84 71.73 42.89 71.11
  Q 43.06 69.19 42.29 67.75"
/>
<path stroke="#f3efea" vector-effect="non-scaling-stroke" d="
  M 42.29 67.75
  L 41.96 67.25"
/>
<path stroke="#e3d8d3" vector-effect="non-scaling-stroke" d="
  M 41.96 67.25
  L 42.25 66.21"
/>
<path stroke="#f3efea" vector-effect="non-scaling-stroke" d="
  M 42.25 66.21
  Q 42.98 63.74 42.46 61.25"
/>
<path stroke="#818181" vector-effect="non-scaling-stroke" d="
  M 42.46 61.25
  Q 42.95 60.40 42.55 59.90
  Q 42.24 59.52 41.75 59.53
  Q 40.86 59.56 40.46 58.75"
/>
<path stroke="#e3d8d3" vector-effect="non-scaling-stroke" d="
  M 40.46 58.75
  L 41.25 57.71"
/>
<path stroke="#818181" vector-effect="non-scaling-stroke" d="
  M 41.25 57.71
  Q 41.59 57.86 42.03 57.77
  Q 42.50 57.68 42.50 57.21
  L 42.50 56.09
  Q 42.50 55.56 42.01 55.33
  Q 41.64 55.16 41.25 55.29"
/>
<path stroke="#e3d8d3" vector-effect="non-scaling-stroke" d="
  M 41.25 55.29
  L 39.71 55.00"
/>
<path stroke="#818181" vector-effect="non-scaling-stroke" d="
  M 39.71 55.00
  C 40.08 53.13 43.40 54.71 42.07 52.95"
/>
<path stroke="#bab7b4" vector-effect="non-scaling-stroke" d="
  M 47.50 49.46
  L 51.75 49.46"
/>
<path stroke="#bab7b4" vector-effect="non-scaling-stroke" d="
  M 62.29 48.75
  Q 62.81 49.12 63.59 48.97
  A 0.38 0.38 0.0 0 0 63.81 48.36
  Q 63.24 47.68 62.29 47.75"
/>
<path stroke="#655a55" vector-effect="non-scaling-stroke" d="
  M 39.71 55.00
  Q 40.35 56.48 39.29 57.50"
/>
<path stroke="#9e9088" vector-effect="non-scaling-stroke" d="
  M 64.25 75.29
  Q 65.00 75.46 65.32 75.13
  Q 65.68 74.76 65.21 74.55
  Q 64.17 74.07 63.08 74.60"
/>
<path stroke="#9e9088" vector-effect="non-scaling-stroke" d="
  M 67.96 57.00
  L 66.98 56.98
  Q 66.35 56.97 66.51 57.58
  Q 66.57 57.83 66.54 58.00"
/>
<path stroke="#9e9088" vector-effect="non-scaling-stroke" d="
  M 66.04 58.25
  Q 65.34 56.15 66.29 54.42"
/>
<path stroke="#9e9088" vector-effect="non-scaling-stroke" d="
  M 68.71 67.75
  Q 68.39 69.00 67.03 68.46
  Q 66.27 68.16 66.17 68.97
  L 65.84 71.48
  Q 65.76 72.11 65.13 72.16
  L 60.50 72.54"
/>
<path stroke="#d7c8be" vector-effect="non-scaling-stroke" d="
  M 41.96 67.25
  Q 40.71 68.02 40.24 69.34
  Q 40.07 69.79 40.53 69.96
  L 41.27 70.23
  Q 41.98 70.50 42.07 69.74
  L 42.29 67.75"
/>
<path stroke="#655a55" vector-effect="non-scaling-stroke" d="
  M 41.25 55.29
  Q 40.65 56.50 41.25 57.71"
/>
<path stroke="#655a55" vector-effect="non-scaling-stroke" d="
  M 40.46 58.75
  L 39.54 58.75"
/>
<path stroke="#d7c8be" vector-effect="non-scaling-stroke" d="
  M 42.25 66.21
  L 39.75 68.29"
/>
<path stroke="#aea69f" vector-effect="non-scaling-stroke" d="
  M 39.04 65.75
  Q 40.02 65.62 39.73 64.72
  Q 39.56 64.20 39.88 63.76
  L 41.39 61.65
  Q 42.05 60.72 41.20 61.48
  Q 40.10 62.47 39.04 63.50"
/>
<path stroke="#75716c" vector-effect="non-scaling-stroke" d="
  M 42.46 61.25
  Q 41.35 59.39 39.25 59.96"
/>
<path stroke="#66706c" vector-effect="non-scaling-stroke" d="
  M 43.06 17.11
  A 3.02 3.02 0.0 0 0 40.04 14.09
  A 3.02 3.02 0.0 0 0 37.02 17.11
  A 3.02 3.02 0.0 0 0 40.04 20.13
  A 3.02 3.02 0.0 0 0 43.06 17.11"
/>
<path stroke="#bdd4ca" vector-effect="non-scaling-stroke" d="
  M 46.30 16.14
  A 0.67 0.67 0.0 0 0 46.36 17.42
  L 47.13 17.62
  A 0.56 0.56 0.0 0 0 47.81 16.92
  Q 47.45 15.72 46.30 16.14"
/>
<path stroke="#d7c8be" vector-effect="non-scaling-stroke" d="
  M 41.3907 49.7441
  A 1.00 0.35 54.5 0 0 41.0949 48.7268
  A 1.00 0.35 54.5 0 0 40.2293 48.1159
  A 1.00 0.35 54.5 0 0 40.5251 49.1332
  A 1.00 0.35 54.5 0 0 41.3907 49.7441"
/>
<path stroke="#b2aeab" vector-effect="non-scaling-stroke" d="
  M 57.15 78.94
  Q 57.56 78.12 58.02 77.35
  Q 58.62 76.33 57.78 77.17
  Q 56.11 78.85 56.24 81.03
  Q 56.26 81.31 56.53 81.24
  C 57.19 81.08 56.98 80.38 56.95 79.91
  Q 56.92 79.40 57.15 78.94"
/>
<path stroke="#b2aeab" vector-effect="non-scaling-stroke" d="
  M 60.30 80.93
  L 59.56 80.04
  Q 59.23 79.64 58.87 80.00
  L 58.56 80.32
  Q 58.09 80.79 58.75 80.77
  Q 60.13 80.73 60.41 82.11
  Q 60.52 82.63 61.04 82.51
  L 63.51 81.91
  Q 65.23 81.49 63.50 81.09
  Q 62.30 80.80 61.15 81.17
  Q 60.64 81.34 60.30 80.93"
/>
<path stroke="#818181" vector-effect="non-scaling-stroke" d="
  M 48.05 53.43
  L 48.31 53.69
  Q 50.39 55.76 48.76 53.30
  Q 48.09 52.29 46.40 52.94
  Q 45.98 53.11 45.99 53.56
  L 46.03 59.99
  Q 46.06 62.81 46.76 60.08
  Q 47.55 57.06 46.84 54.10
  A 0.72 0.72 0.0 0 1 48.05 53.43"
/>
<path stroke="#818181" vector-effect="non-scaling-stroke" d="
  M 55.98 52.99
  L 55.00 52.99
  A 0.23 0.23 0.0 0 0 54.77 53.23
  L 54.77 53.38
  A 5.54 0.69 89.6 0 0 55.50 58.91
  L 55.56 58.91
  A 5.54 0.69 89.6 0 0 56.21 53.37
  L 56.21 53.22
  A 0.23 0.23 0.0 0 0 55.98 52.99"
/>
<path stroke="#818181" vector-effect="non-scaling-stroke" d="
  M 59.04 57.30
  L 58.90 53.45
  Q 58.89 53.20 58.64 53.25
  Q 58.42 53.29 58.36 53.44
  Q 56.68 57.60 60.13 58.68
  Q 60.66 58.85 61.01 58.41
  C 62.08 57.02 62.37 53.56 60.10 53.02
  Q 59.47 52.87 59.94 53.31
  Q 61.93 55.17 60.58 57.66
  A 0.82 0.82 0.0 0 1 59.04 57.30"
/>
<path stroke="#818181" vector-effect="non-scaling-stroke" d="
  M 51.5071 59.2778
  A 3.05 1.98 87.8 0 0 53.3685 56.1540
  A 3.05 1.98 87.8 0 0 51.2729 53.1822
  A 3.05 1.98 87.8 0 0 49.4115 56.3060
  A 3.05 1.98 87.8 0 0 51.5071 59.2778"
/>
<path stroke="#818181" vector-effect="non-scaling-stroke" d="
  M 51.95 66.75
  A 0.44 0.44 0.0 0 1 52.83 66.76
  Q 52.87 67.96 53.41 68.95
  Q 53.91 69.90 54.00 68.83
  Q 54.18 66.67 52.50 65.39
  Q 52.09 65.08 51.97 64.58
  L 51.71 63.56
  Q 51.58 63.04 51.05 62.99
  L 47.88 62.69
  Q 47.14 62.62 47.19 63.36
  L 47.61 69.31
  Q 47.64 69.63 47.95 69.68
  Q 51.73 70.29 51.95 66.75"
/>
<path stroke="#818181" vector-effect="non-scaling-stroke" d="
  M 59.81 63.42
  Q 60.16 63.59 60.54 63.75
  Q 68.85 67.31 60.68 63.14
  Q 59.66 62.61 58.33 62.94
  Q 57.81 63.07 57.99 63.58
  Q 58.79 65.95 57.64 68.13
  Q 57.31 68.75 58.01 68.75
  L 60.33 68.75
  Q 61.08 68.75 60.52 68.25
  Q 59.99 67.78 59.42 68.17
  Q 57.54 69.45 58.90 67.41
  Q 59.94 65.84 59.05 64.24
  Q 58.18 62.68 59.81 63.42"
/>
<path stroke="#818181" vector-effect="non-scaling-stroke" d="
  M 55.48 68.82
  L 56.15 68.76
  A 0.20 0.20 0.0 0 0 56.34 68.55
  L 55.98 64.23
  A 1.23 0.52 85.3 0 0 55.36 63.05
  L 55.32 63.05
  A 1.23 0.52 85.3 0 0 54.91 64.32
  L 55.26 68.64
  A 0.20 0.20 0.0 0 0 55.48 68.82"
/>
<path stroke="#818181" vector-effect="non-scaling-stroke" d="
  M 51.4449 58.9283
  A 2.59 1.01 87.9 0 0 52.3593 56.3030
  A 2.59 1.01 87.9 0 0 51.2551 53.7517
  A 2.59 1.01 87.9 0 0 50.3407 56.3770
  A 2.59 1.01 87.9 0 0 51.4449 58.9283"
/>
<path stroke="#818181" vector-effect="non-scaling-stroke" d="
  M 47.99 63.56
  L 48.69 69.05
  A 0.28 0.28 0.0 0 0 49.00 69.30
  L 49.17 69.28
  A 2.78 2.51 82.8 0 0 51.31 66.20
  L 51.24 65.67
  A 2.78 2.51 82.8 0 0 48.41 63.22
  L 48.24 63.24
  A 0.28 0.28 0.0 0 0 47.99 63.56"
/>
</g>
<path fill="#ffffff" d="
  M 0.00 0.00
  L 110.00 0.00
  L 110.00 110.00
  L 0.00 110.00
  L 0.00 0.00
  Z
  M 32.75 88.79
  C 32.58 94.17 32.70 98.41 39.14 98.60
  Q 60.20 99.22 72.50 98.56
  C 77.34 98.31 77.56 92.15 77.39 88.71
  Q 77.96 83.17 77.99 77.50
  Q 78.16 47.24 77.82 17.01
  C 77.76 11.82 73.82 10.01 68.98 9.99
  Q 54.27 9.93 39.57 10.28
  C 32.67 10.44 32.38 15.34 32.30 20.75
  Q 31.84 49.09 32.08 77.44
  Q 32.13 83.14 32.75 88.79
  Z
  M 29.9765 43.4405
  A 0.70 0.53 -5.7 0 0 29.2274 42.9826
  A 0.70 0.53 -5.7 0 0 28.5835 43.5795
  A 0.70 0.53 -5.7 0 0 29.3326 44.0374
  A 0.70 0.53 -5.7 0 0 29.9765 43.4405
  Z"
/>
<path fill="#b1cac0" d="
  M 77.39 88.71
  Q 76.33 91.00 76.84 93.51
  Q 76.95 94.04 76.74 94.54
  Q 75.12 98.33 70.88 98.19
  C 61.72 97.89 52.44 98.36 43.25 98.17
  C 37.73 98.05 32.91 98.75 33.22 92.06
  Q 33.32 89.87 32.75 88.79
  Q 32.13 83.14 32.08 77.44
  Q 31.84 49.09 32.30 20.75
  C 32.38 15.34 32.67 10.44 39.57 10.28
  Q 54.27 9.93 68.98 9.99
  C 73.82 10.01 77.76 11.82 77.82 17.01
  Q 78.16 47.24 77.99 77.50
  Q 77.96 83.17 77.39 88.71
  Z
  M 38.79 28.25
  Q 40.75 28.93 42.21 27.50
  L 42.80 29.14
  Q 42.96 29.58 43.43 29.64
  C 45.33 29.88 48.76 40.19 49.50 42.21
  Q 45.68 43.49 41.63 43.64
  Q 41.07 43.67 40.65 44.02
  Q 39.33 45.12 37.64 45.06
  Q 37.09 45.04 37.08 45.60
  L 37.04 48.00
  Q 36.59 66.20 37.86 84.35
  Q 37.90 84.93 38.47 84.91
  L 44.00 84.71
  L 44.96 84.50
  C 45.30 85.08 51.90 84.66 53.50 85.04
  L 52.09 88.94
  Q 51.72 89.95 52.58 89.31
  Q 55.82 86.92 57.57 84.15
  Q 64.42 85.07 71.19 84.57
  Q 71.56 84.55 71.59 84.17
  L 73.04 59.75
  L 73.57 58.81
  Q 73.88 58.26 74.33 58.70
  L 74.62 59.00
  Q 74.95 59.32 74.93 59.78
  Q 74.65 67.63 75.04 75.49
  Q 75.08 76.40 75.18 75.49
  C 75.41 73.38 76.19 71.64 76.11 69.55
  C 75.68 58.53 76.29 49.20 76.09 40.67
  C 75.89 32.04 77.40 23.76 75.98 15.16
  C 75.65 13.18 74.20 11.37 72.25 11.27
  Q 65.83 10.95 51.49 11.59
  Q 50.96 11.61 50.48 11.39
  Q 49.57 10.95 48.75 11.20
  Q 47.68 11.53 48.77 11.80
  Q 49.97 12.10 50.60 13.13
  Q 50.98 13.75 50.32 13.44
  Q 41.42 9.24 34.60 15.70
  Q 34.23 16.05 34.15 16.56
  Q 33.22 22.13 34.27 27.69
  Q 34.35 28.14 34.77 28.33
  L 37.32 29.48
  Q 37.81 29.70 38.22 29.36
  Q 38.70 28.99 38.79 28.25
  Z"
/>
<path fill="#c8ddd4" d="
  M 73.04 59.75
  Q 72.86 54.75 73.16 49.82
  C 73.64 41.72 64.52 44.34 59.75 43.71
  Q 59.55 42.77 58.97 42.11
  Q 58.63 41.71 58.10 41.74
  L 49.50 42.21
  C 48.76 40.19 45.33 29.88 43.43 29.64
  Q 42.96 29.58 42.80 29.14
  L 42.21 27.50
  Q 43.69 26.17 42.93 24.60
  C 40.41 19.37 33.73 25.23 38.79 28.25
  Q 38.70 28.99 38.22 29.36
  Q 37.81 29.70 37.32 29.48
  L 34.77 28.33
  Q 34.35 28.14 34.27 27.69
  Q 33.22 22.13 34.15 16.56
  Q 34.23 16.05 34.60 15.70
  Q 41.42 9.24 50.32 13.44
  Q 50.98 13.75 50.60 13.13
  Q 49.97 12.10 48.77 11.80
  Q 47.68 11.53 48.75 11.20
  Q 49.57 10.95 50.48 11.39
  Q 50.96 11.61 51.49 11.59
  Q 65.83 10.95 72.25 11.27
  C 74.20 11.37 75.65 13.18 75.98 15.16
  C 77.40 23.76 75.89 32.04 76.09 40.67
  C 76.29 49.20 75.68 58.53 76.11 69.55
  C 76.19 71.64 75.41 73.38 75.18 75.49
  Q 75.08 76.40 75.04 75.49
  Q 74.65 67.63 74.93 59.78
  Q 74.95 59.32 74.62 59.00
  L 74.33 58.70
  Q 73.88 58.26 73.57 58.81
  L 73.04 59.75
  Z
  M 43.06 17.11
  A 3.02 3.02 0.0 0 0 40.04 14.09
  A 3.02 3.02 0.0 0 0 37.02 17.11
  A 3.02 3.02 0.0 0 0 40.04 20.13
  A 3.02 3.02 0.0 0 0 43.06 17.11
  Z
  M 46.30 16.14
  A 0.67 0.67 0.0 0 0 46.36 17.42
  L 47.13 17.62
  A 0.56 0.56 0.0 0 0 47.81 16.92
  Q 47.45 15.72 46.30 16.14
  Z"
/>
<circle fill="#030303" cx="40.04" cy="17.11" r="3.02"/>
<path fill="#b1cac0" d="
  M 46.30 16.14
  Q 47.45 15.72 47.81 16.92
  A 0.56 0.56 0.0 0 1 47.13 17.62
  L 46.36 17.42
  A 0.67 0.67 0.0 0 1 46.30 16.14
  Z"
/>
<path fill="#030303" d="
  M 42.21 27.50
  Q 40.75 28.93 38.79 28.25
  C 33.73 25.23 40.41 19.37 42.93 24.60
  Q 43.69 26.17 42.21 27.50
  Z"
/>
<path fill="#e7ded5" d="
  M 59.75 43.71
  Q 59.64 46.34 63.25 45.79
  L 62.29 47.75
  L 62.29 48.75
  Q 57.07 49.90 51.75 49.46
  L 51.98 47.23
  Q 52.05 46.56 51.38 46.61
  Q 49.21 46.76 48.86 48.72
  Q 48.72 49.49 48.16 48.94
  Q 47.74 48.54 47.75 47.98
  Q 47.76 46.78 47.26 47.87
  Q 46.87 48.74 47.50 49.46
  C 45.38 49.46 40.81 50.02 42.07 52.95
  Q 39.79 52.95 39.21 54.75
  Q 38.61 53.67 38.79 52.50
  Q 39.69 52.42 40.03 51.79
  Q 40.34 51.25 39.74 51.08
  L 38.75 50.79
  Q 37.65 49.56 38.07 48.03
  Q 38.22 47.51 37.72 47.72
  L 37.04 48.00
  L 37.08 45.60
  Q 37.09 45.04 37.64 45.06
  Q 39.33 45.12 40.65 44.02
  Q 41.07 43.67 41.63 43.64
  Q 45.68 43.49 49.50 42.21
  L 58.10 41.74
  Q 58.63 41.71 58.97 42.11
  Q 59.55 42.77 59.75 43.71
  Z
  M 41.3907 49.7441
  A 1.00 0.35 54.5 0 0 41.0949 48.7268
  A 1.00 0.35 54.5 0 0 40.2293 48.1159
  A 1.00 0.35 54.5 0 0 40.5251 49.1332
  A 1.00 0.35 54.5 0 0 41.3907 49.7441
  Z"
/>
<ellipse fill="#756e69" cx="0.00" cy="0.00" transform="translate(29.28,43.51) rotate(-5.7)" rx="0.70" ry="0.53"/>
<path fill="#eeeded" d="
  M 59.75 43.71
  C 64.52 44.34 73.64 41.72 73.16 49.82
  Q 72.86 54.75 73.04 59.75
  L 71.59 84.17
  Q 71.56 84.55 71.19 84.57
  Q 64.42 85.07 57.57 84.15
  Q 58.45 83.10 58.56 82.43
  Q 58.65 81.85 58.24 82.28
  C 56.61 83.99 55.23 87.26 52.84 88.31
  Q 51.87 88.73 52.47 87.87
  L 54.69 84.70
  Q 54.73 84.64 54.70 84.58
  Q 54.63 84.47 54.49 84.40
  Q 54.10 84.21 53.84 84.56
  L 53.50 85.04
  C 51.90 84.66 45.30 85.08 44.96 84.50
  C 47.13 82.40 54.24 83.43 53.95 80.65
  Q 53.88 79.93 53.29 80.34
  Q 52.28 81.03 51.10 80.65
  Q 50.67 80.51 50.31 80.78
  L 47.22 83.16
  A 0.60 0.59 -1.9 0 1 46.36 82.36
  Q 48.24 79.55 49.00 76.25
  C 49.87 75.21 61.87 75.45 64.25 75.29
  L 68.71 75.64
  Q 69.51 75.70 69.26 74.93
  L 69.04 74.21
  Q 68.87 73.69 68.86 73.14
  L 68.71 67.75
  L 68.73 66.62
  Q 68.73 66.24 68.35 66.25
  C 67.60 66.26 67.63 67.75 66.43 67.74
  Q 65.87 67.74 65.79 67.18
  Q 65.20 62.68 66.04 58.25
  L 66.54 58.00
  Q 67.44 58.22 67.75 59.03
  Q 67.94 59.52 67.74 60.00
  Q 67.15 61.38 67.76 62.68
  Q 68.14 63.51 68.39 62.63
  Q 69.25 59.65 67.96 57.00
  Q 69.10 51.75 68.78 46.40
  Q 68.74 45.76 68.14 45.55
  L 67.08 45.18
  Q 66.51 44.99 66.86 45.47
  Q 68.16 47.29 68.05 49.30
  Q 67.91 51.82 66.29 54.42
  Q 65.46 52.02 65.71 50.00
  Q 66.70 48.05 65.80 46.04
  Q 65.59 45.57 65.08 45.51
  Q 64.17 45.40 63.25 45.79
  Q 59.64 46.34 59.75 43.71
  Z
  M 57.15 78.94
  Q 57.56 78.12 58.02 77.35
  Q 58.62 76.33 57.78 77.17
  Q 56.11 78.85 56.24 81.03
  Q 56.26 81.31 56.53 81.24
  C 57.19 81.08 56.98 80.38 56.95 79.91
  Q 56.92 79.40 57.15 78.94
  Z
  M 60.30 80.93
  L 59.56 80.04
  Q 59.23 79.64 58.87 80.00
  L 58.56 80.32
  Q 58.09 80.79 58.75 80.77
  Q 60.13 80.73 60.41 82.11
  Q 60.52 82.63 61.04 82.51
  L 63.51 81.91
  Q 65.23 81.49 63.50 81.09
  Q 62.30 80.80 61.15 81.17
  Q 60.64 81.34 60.30 80.93
  Z"
/>
<path fill="#c6b1a6" d="
  M 67.96 57.00
  L 66.98 56.98
  Q 66.35 56.97 66.51 57.58
  Q 66.57 57.83 66.54 58.00
  L 66.04 58.25
  Q 65.34 56.15 66.29 54.42
  Q 67.91 51.82 68.05 49.30
  Q 68.16 47.29 66.86 45.47
  Q 66.51 44.99 67.08 45.18
  L 68.14 45.55
  Q 68.74 45.76 68.78 46.40
  Q 69.10 51.75 67.96 57.00
  Z"
/>
<path fill="#ffffff" d="
  M 65.71 50.00
  Q 65.35 49.91 65.03 50.01
  Q 64.49 50.18 64.51 50.74
  L 65.35 70.76
  Q 65.38 71.46 64.69 71.46
  C 61.94 71.47 43.09 71.60 42.34 73.37
  Q 42.08 73.98 42.68 73.70
  Q 44.59 72.80 47.24 72.98
  Q 51.10 73.24 60.50 72.54
  Q 61.43 73.92 63.08 74.60
  Q 54.64 74.97 46.35 74.67
  C 45.02 74.62 44.05 73.77 43.17 75.53
  A 0.20 0.20 0.0 0 0 43.44 75.79
  C 44.38 75.33 49.01 74.18 49.00 76.25
  Q 47.27 80.96 44.00 84.71
  L 38.47 84.91
  Q 37.90 84.93 37.86 84.35
  Q 36.59 66.20 37.04 48.00
  L 37.72 47.72
  Q 38.22 47.51 38.07 48.03
  Q 37.65 49.56 38.75 50.79
  L 38.79 52.50
  Q 38.61 53.67 39.21 54.75
  L 39.29 57.50
  L 39.54 58.75
  L 39.25 59.96
  Q 38.50 61.68 39.04 63.50
  L 39.04 65.75
  Q 38.27 67.43 39.75 68.29
  Q 38.56 69.78 39.31 71.21
  Q 39.60 71.76 40.22 71.76
  L 42.22 71.73
  Q 42.84 71.73 42.89 71.11
  Q 43.06 69.19 42.29 67.75
  L 41.96 67.25
  L 42.25 66.21
  Q 42.98 63.74 42.46 61.25
  Q 42.95 60.40 42.55 59.90
  Q 42.24 59.52 41.75 59.53
  Q 40.86 59.56 40.46 58.75
  L 41.25 57.71
  Q 41.59 57.86 42.03 57.77
  Q 42.50 57.68 42.50 57.21
  L 42.50 56.09
  Q 42.50 55.56 42.01 55.33
  Q 41.64 55.16 41.25 55.29
  L 39.71 55.00
  C 40.08 53.13 43.40 54.71 42.07 52.95
  C 40.81 50.02 45.38 49.46 47.50 49.46
  L 51.75 49.46
  Q 57.07 49.90 62.29 48.75
  Q 62.81 49.12 63.59 48.97
  A 0.38 0.38 0.0 0 0 63.81 48.36
  Q 63.24 47.68 62.29 47.75
  L 63.25 45.79
  Q 64.17 45.40 65.08 45.51
  Q 65.59 45.57 65.80 46.04
  Q 66.70 48.05 65.71 50.00
  Z
  M 48.05 53.43
  L 48.31 53.69
  Q 50.39 55.76 48.76 53.30
  Q 48.09 52.29 46.40 52.94
  Q 45.98 53.11 45.99 53.56
  L 46.03 59.99
  Q 46.06 62.81 46.76 60.08
  Q 47.55 57.06 46.84 54.10
  A 0.72 0.72 0.0 0 1 48.05 53.43
  Z
  M 55.98 52.99
  L 55.00 52.99
  A 0.23 0.23 0.0 0 0 54.77 53.23
  L 54.77 53.38
  A 5.54 0.69 89.6 0 0 55.50 58.91
  L 55.56 58.91
  A 5.54 0.69 89.6 0 0 56.21 53.37
  L 56.21 53.22
  A 0.23 0.23 0.0 0 0 55.98 52.99
  Z
  M 59.04 57.30
  L 58.90 53.45
  Q 58.89 53.20 58.64 53.25
  Q 58.42 53.29 58.36 53.44
  Q 56.68 57.60 60.13 58.68
  Q 60.66 58.85 61.01 58.41
  C 62.08 57.02 62.37 53.56 60.10 53.02
  Q 59.47 52.87 59.94 53.31
  Q 61.93 55.17 60.58 57.66
  A 0.82 0.82 0.0 0 1 59.04 57.30
  Z
  M 51.5071 59.2778
  A 3.05 1.98 87.8 0 0 53.3685 56.1540
  A 3.05 1.98 87.8 0 0 51.2729 53.1822
  A 3.05 1.98 87.8 0 0 49.4115 56.3060
  A 3.05 1.98 87.8 0 0 51.5071 59.2778
  Z
  M 51.95 66.75
  A 0.44 0.44 0.0 0 1 52.83 66.76
  Q 52.87 67.96 53.41 68.95
  Q 53.91 69.90 54.00 68.83
  Q 54.18 66.67 52.50 65.39
  Q 52.09 65.08 51.97 64.58
  L 51.71 63.56
  Q 51.58 63.04 51.05 62.99
  L 47.88 62.69
  Q 47.14 62.62 47.19 63.36
  L 47.61 69.31
  Q 47.64 69.63 47.95 69.68
  Q 51.73 70.29 51.95 66.75
  Z
  M 59.81 63.42
  Q 60.16 63.59 60.54 63.75
  Q 68.85 67.31 60.68 63.14
  Q 59.66 62.61 58.33 62.94
  Q 57.81 63.07 57.99 63.58
  Q 58.79 65.95 57.64 68.13
  Q 57.31 68.75 58.01 68.75
  L 60.33 68.75
  Q 61.08 68.75 60.52 68.25
  Q 59.99 67.78 59.42 68.17
  Q 57.54 69.45 58.90 67.41
  Q 59.94 65.84 59.05 64.24
  Q 58.18 62.68 59.81 63.42
  Z
  M 55.48 68.82
  L 56.15 68.76
  A 0.20 0.20 0.0 0 0 56.34 68.55
  L 55.98 64.23
  A 1.23 0.52 85.3 0 0 55.36 63.05
  L 55.32 63.05
  A 1.23 0.52 85.3 0 0 54.91 64.32
  L 55.26 68.64
  A 0.20 0.20 0.0 0 0 55.48 68.82
  Z"
/>
<path fill="#756e69" d="
  M 51.75 49.46
  L 47.50 49.46
  Q 46.87 48.74 47.26 47.87
  Q 47.76 46.78 47.75 47.98
  Q 47.74 48.54 48.16 48.94
  Q 48.72 49.49 48.86 48.72
  Q 49.21 46.76 51.38 46.61
  Q 52.05 46.56 51.98 47.23
  L 51.75 49.46
  Z"
/>
<path fill="#756e69" d="
  M 62.29 47.75
  Q 63.24 47.68 63.81 48.36
  A 0.38 0.38 0.0 0 1 63.59 48.97
  Q 62.81 49.12 62.29 48.75
  L 62.29 47.75
  Z"
/>
<ellipse fill="#c6b1a6" cx="0.00" cy="0.00" transform="translate(40.81,48.93) rotate(54.5)" rx="1.00" ry="0.35"/>
<path fill="#756e69" d="
  M 65.71 50.00
  Q 65.46 52.02 66.29 54.42
  Q 65.34 56.15 66.04 58.25
  Q 65.20 62.68 65.79 67.18
  Q 65.87 67.74 66.43 67.74
  C 67.63 67.75 67.60 66.26 68.35 66.25
  Q 68.73 66.24 68.73 66.62
  L 68.71 67.75
  Q 68.39 69.00 67.03 68.46
  Q 66.27 68.16 66.17 68.97
  L 65.84 71.48
  Q 65.76 72.11 65.13 72.16
  L 60.50 72.54
  Q 51.10 73.24 47.24 72.98
  Q 44.59 72.80 42.68 73.70
  Q 42.08 73.98 42.34 73.37
  C 43.09 71.60 61.94 71.47 64.69 71.46
  Q 65.38 71.46 65.35 70.76
  L 64.51 50.74
  Q 64.49 50.18 65.03 50.01
  Q 65.35 49.91 65.71 50.00
  Z"
/>
<path fill="#756e69" d="
  M 38.75 50.79
  L 39.74 51.08
  Q 40.34 51.25 40.03 51.79
  Q 39.69 52.42 38.79 52.50
  L 38.75 50.79
  Z"
/>
<path fill="#030303" d="
  M 48.05 53.43
  A 0.72 0.72 0.0 0 0 46.84 54.10
  Q 47.55 57.06 46.76 60.08
  Q 46.06 62.81 46.03 59.99
  L 45.99 53.56
  Q 45.98 53.11 46.40 52.94
  Q 48.09 52.29 48.76 53.30
  Q 50.39 55.76 48.31 53.69
  L 48.05 53.43
  Z"
/>
<path fill="#030303" d="
  M 42.07 52.95
  C 43.40 54.71 40.08 53.13 39.71 55.00
  Q 40.35 56.48 39.29 57.50
  L 39.21 54.75
  Q 39.79 52.95 42.07 52.95
  Z"
/>
<path fill="#030303" d="
  M 55.98 52.99
  A 0.23 0.23 0.0 0 1 56.21 53.22
  L 56.21 53.37
  A 5.54 0.69 89.6 0 1 55.56 58.91
  L 55.50 58.91
  A 5.54 0.69 89.6 0 1 54.77 53.38
  L 54.77 53.23
  A 0.23 0.23 0.0 0 1 55.00 52.99
  L 55.98 52.99
  Z"
/>
<path fill="#030303" d="
  M 59.04 57.30
  A 0.82 0.82 0.0 0 0 60.58 57.66
  Q 61.93 55.17 59.94 53.31
  Q 59.47 52.87 60.10 53.02
  C 62.37 53.56 62.08 57.02 61.01 58.41
  Q 60.66 58.85 60.13 58.68
  Q 56.68 57.60 58.36 53.44
  Q 58.42 53.29 58.64 53.25
  Q 58.89 53.20 58.90 53.45
  L 59.04 57.30
  Z"
/>
<path fill="#030303" d="
  M 51.5071 59.2778
  A 3.05 1.98 87.8 0 1 49.4115 56.3060
  A 3.05 1.98 87.8 0 1 51.2729 53.1822
  A 3.05 1.98 87.8 0 1 53.3685 56.1540
  A 3.05 1.98 87.8 0 1 51.5071 59.2778
  Z
  M 51.4449 58.9283
  A 2.59 1.01 87.9 0 0 52.3593 56.3030
  A 2.59 1.01 87.9 0 0 51.2551 53.7517
  A 2.59 1.01 87.9 0 0 50.3407 56.3770
  A 2.59 1.01 87.9 0 0 51.4449 58.9283
  Z"
/>
<ellipse fill="#ffffff" cx="0.00" cy="0.00" transform="translate(51.35,56.34) rotate(87.9)" rx="2.59" ry="1.01"/>
<path fill="#c6b1a6" d="
  M 39.71 55.00
  L 41.25 55.29
  Q 40.65 56.50 41.25 57.71
  L 40.46 58.75
  L 39.54 58.75
  L 39.29 57.50
  Q 40.35 56.48 39.71 55.00
  Z"
/>
<path fill="#030303" d="
  M 41.25 55.29
  Q 41.64 55.16 42.01 55.33
  Q 42.50 55.56 42.50 56.09
  L 42.50 57.21
  Q 42.50 57.68 42.03 57.77
  Q 41.59 57.86 41.25 57.71
  Q 40.65 56.50 41.25 55.29
  Z"
/>
<path fill="#756e69" d="
  M 67.96 57.00
  Q 69.25 59.65 68.39 62.63
  Q 68.14 63.51 67.76 62.68
  Q 67.15 61.38 67.74 60.00
  Q 67.94 59.52 67.75 59.03
  Q 67.44 58.22 66.54 58.00
  Q 66.57 57.83 66.51 57.58
  Q 66.35 56.97 66.98 56.98
  L 67.96 57.00
  Z"
/>
<path fill="#030303" d="
  M 40.46 58.75
  Q 40.86 59.56 41.75 59.53
  Q 42.24 59.52 42.55 59.90
  Q 42.95 60.40 42.46 61.25
  Q 41.35 59.39 39.25 59.96
  L 39.54 58.75
  L 40.46 58.75
  Z"
/>
<path fill="#e7ded5" d="
  M 42.46 61.25
  Q 42.98 63.74 42.25 66.21
  L 39.75 68.29
  Q 38.27 67.43 39.04 65.75
  Q 40.02 65.62 39.73 64.72
  Q 39.56 64.20 39.88 63.76
  L 41.39 61.65
  Q 42.05 60.72 41.20 61.48
  Q 40.10 62.47 39.04 63.50
  Q 38.50 61.68 39.25 59.96
  Q 41.35 59.39 42.46 61.25
  Z"
/>
<path fill="#756e69" d="
  M 39.04 65.75
  L 39.04 63.50
  Q 40.10 62.47 41.20 61.48
  Q 42.05 60.72 41.39 61.65
  L 39.88 63.76
  Q 39.56 64.20 39.73 64.72
  Q 40.02 65.62 39.04 65.75
  Z"
/>
<path fill="#030303" d="
  M 51.95 66.75
  Q 51.73 70.29 47.95 69.68
  Q 47.64 69.63 47.61 69.31
  L 47.19 63.36
  Q 47.14 62.62 47.88 62.69
  L 51.05 62.99
  Q 51.58 63.04 51.71 63.56
  L 51.97 64.58
  Q 52.09 65.08 52.50 65.39
  Q 54.18 66.67 54.00 68.83
  Q 53.91 69.90 53.41 68.95
  Q 52.87 67.96 52.83 66.76
  A 0.44 0.44 0.0 0 0 51.95 66.75
  Z
  M 47.99 63.56
  L 48.69 69.05
  A 0.28 0.28 0.0 0 0 49.00 69.30
  L 49.17 69.28
  A 2.78 2.51 82.8 0 0 51.31 66.20
  L 51.24 65.67
  A 2.78 2.51 82.8 0 0 48.41 63.22
  L 48.24 63.24
  A 0.28 0.28 0.0 0 0 47.99 63.56
  Z"
/>
<path fill="#030303" d="
  M 59.05 64.24
  Q 59.94 65.84 58.90 67.41
  Q 57.54 69.45 59.42 68.17
  Q 59.99 67.78 60.52 68.25
  Q 61.08 68.75 60.33 68.75
  L 58.01 68.75
  Q 57.31 68.75 57.64 68.13
  Q 58.79 65.95 57.99 63.58
  Q 57.81 63.07 58.33 62.94
  Q 59.66 62.61 60.68 63.14
  Q 68.85 67.31 60.54 63.75
  Q 60.16 63.59 59.81 63.42
  Q 58.18 62.68 59.05 64.24
  Z"
/>
<path fill="#030303" d="
  M 55.48 68.82
  A 0.20 0.20 0.0 0 1 55.26 68.64
  L 54.91 64.32
  A 1.23 0.52 85.3 0 1 55.32 63.05
  L 55.36 63.05
  A 1.23 0.52 85.3 0 1 55.98 64.23
  L 56.34 68.55
  A 0.20 0.20 0.0 0 1 56.15 68.76
  L 55.48 68.82
  Z"
/>
<path fill="#ffffff" d="
  M 47.99 63.56
  A 0.28 0.28 0.0 0 1 48.24 63.24
  L 48.41 63.22
  A 2.78 2.51 82.8 0 1 51.24 65.67
  L 51.31 66.20
  A 2.78 2.51 82.8 0 1 49.17 69.28
  L 49.00 69.30
  A 0.28 0.28 0.0 0 1 48.69 69.05
  L 47.99 63.56
  Z"
/>
<path fill="#c6b1a6" d="
  M 42.25 66.21
  L 41.96 67.25
  Q 40.71 68.02 40.24 69.34
  Q 40.07 69.79 40.53 69.96
  L 41.27 70.23
  Q 41.98 70.50 42.07 69.74
  L 42.29 67.75
  Q 43.06 69.19 42.89 71.11
  Q 42.84 71.73 42.22 71.73
  L 40.22 71.76
  Q 39.60 71.76 39.31 71.21
  Q 38.56 69.78 39.75 68.29
  L 42.25 66.21
  Z"
/>
<path fill="#e7ded5" d="
  M 41.96 67.25
  L 42.29 67.75
  L 42.07 69.74
  Q 41.98 70.50 41.27 70.23
  L 40.53 69.96
  Q 40.07 69.79 40.24 69.34
  Q 40.71 68.02 41.96 67.25
  Z"
/>
<path fill="#c6b1a6" d="
  M 68.71 67.75
  L 68.86 73.14
  Q 68.87 73.69 69.04 74.21
  L 69.26 74.93
  Q 69.51 75.70 68.71 75.64
  L 64.25 75.29
  Q 65.00 75.46 65.32 75.13
  Q 65.68 74.76 65.21 74.55
  Q 64.17 74.07 63.08 74.60
  Q 61.43 73.92 60.50 72.54
  L 65.13 72.16
  Q 65.76 72.11 65.84 71.48
  L 66.17 68.97
  Q 66.27 68.16 67.03 68.46
  Q 68.39 69.00 68.71 67.75
  Z"
/>
<path fill="#756e69" d="
  M 63.08 74.60
  Q 64.17 74.07 65.21 74.55
  Q 65.68 74.76 65.32 75.13
  Q 65.00 75.46 64.25 75.29
  C 61.87 75.45 49.87 75.21 49.00 76.25
  C 49.01 74.18 44.38 75.33 43.44 75.79
  A 0.20 0.20 0.0 0 1 43.17 75.53
  C 44.05 73.77 45.02 74.62 46.35 74.67
  Q 54.64 74.97 63.08 74.60
  Z"
/>
<path fill="#756e69" d="
  M 49.00 76.25
  Q 48.24 79.55 46.36 82.36
  A 0.60 0.59 -1.9 0 0 47.22 83.16
  L 50.31 80.78
  Q 50.67 80.51 51.10 80.65
  Q 52.28 81.03 53.29 80.34
  Q 53.88 79.93 53.95 80.65
  C 54.24 83.43 47.13 82.40 44.96 84.50
  L 44.00 84.71
  Q 47.27 80.96 49.00 76.25
  Z"
/>
<path fill="#756e69" d="
  M 56.95 79.91
  C 56.98 80.38 57.19 81.08 56.53 81.24
  Q 56.26 81.31 56.24 81.03
  Q 56.11 78.85 57.78 77.17
  Q 58.62 76.33 58.02 77.35
  Q 57.56 78.12 57.15 78.94
  Q 56.92 79.40 56.95 79.91
  Z"
/>
<path fill="#756e69" d="
  M 61.15 81.17
  Q 62.30 80.80 63.50 81.09
  Q 65.23 81.49 63.51 81.91
  L 61.04 82.51
  Q 60.52 82.63 60.41 82.11
  Q 60.13 80.73 58.75 80.77
  Q 58.09 80.79 58.56 80.32
  L 58.87 80.00
  Q 59.23 79.64 59.56 80.04
  L 60.30 80.93
  Q 60.64 81.34 61.15 81.17
  Z"
/>
<path fill="#756e69" d="
  M 57.57 84.15
  Q 55.82 86.92 52.58 89.31
  Q 51.72 89.95 52.09 88.94
  L 53.50 85.04
  L 53.84 84.56
  Q 54.10 84.21 54.49 84.40
  Q 54.63 84.47 54.70 84.58
  Q 54.73 84.64 54.69 84.70
  L 52.47 87.87
  Q 51.87 88.73 52.84 88.31
  C 55.23 87.26 56.61 83.99 58.24 82.28
  Q 58.65 81.85 58.56 82.43
  Q 58.45 83.10 57.57 84.15
  Z"
/>
<path fill="#756e69" d="
  M 32.75 88.79
  Q 33.32 89.87 33.22 92.06
  C 32.91 98.75 37.73 98.05 43.25 98.17
  C 52.44 98.36 61.72 97.89 70.88 98.19
  Q 75.12 98.33 76.74 94.54
  Q 76.95 94.04 76.84 93.51
  Q 76.33 91.00 77.39 88.71
  C 77.56 92.15 77.34 98.31 72.50 98.56
  Q 60.20 99.22 39.14 98.60
  C 32.70 98.41 32.58 94.17 32.75 88.79
  Z"
/>
</svg>
